<svg width="72" height="72" viewBox="0 0 72 72" fill="none" xmlns="http://www.w3.org/2000/svg">
<rect width="72" height="72" rx="36" fill="white"/>
<g clip-path="url(#clip0_1647_32022)">
<path opacity="0.2" d="M26.8076 45.1924C25.6571 44.0419 26.4202 41.6265 25.8346 40.2111C25.2275 38.744 23 37.5631 23 36C23 34.4368 25.2276 33.256 25.8346 31.7888C26.4202 30.3735 25.6571 27.9581 26.8076 26.8076C27.9581 25.6571 30.3735 26.4202 31.7889 25.8346C33.256 25.2275 34.4369 23 36 23C37.5632 23 38.744 25.2276 40.2112 25.8346C41.6265 26.4202 44.0419 25.6571 45.1924 26.8076C46.3429 27.9581 45.5798 30.3735 46.1654 31.7889C46.7725 33.256 49 34.4369 49 36C49 37.5632 46.7724 38.744 46.1654 40.2112C45.5798 41.6265 46.3429 44.0419 45.1924 45.1924C44.0419 46.3429 41.6265 45.5798 40.2111 46.1654C38.744 46.7725 37.5631 49 36 49C34.4368 49 33.256 46.7724 31.7888 46.1654C30.3735 45.5798 27.9581 46.3429 26.8076 45.1924Z" fill="#0A65CC"/>
<path d="M26.8076 45.1924C25.6571 44.0419 26.4202 41.6265 25.8346 40.2111C25.2275 38.744 23 37.5631 23 36C23 34.4368 25.2276 33.256 25.8346 31.7888C26.4202 30.3735 25.6571 27.9581 26.8076 26.8076C27.9581 25.6571 30.3735 26.4202 31.7889 25.8346C33.256 25.2275 34.4369 23 36 23C37.5632 23 38.744 25.2276 40.2112 25.8346C41.6265 26.4202 44.0419 25.6571 45.1924 26.8076C46.3429 27.9581 45.5798 30.3735 46.1654 31.7889C46.7725 33.256 49 34.4369 49 36C49 37.5632 46.7724 38.744 46.1654 40.2112C45.5798 41.6265 46.3429 44.0419 45.1924 45.1924C44.0419 46.3429 41.6265 45.5798 40.2111 46.1654C38.744 46.7725 37.5631 49 36 49C34.4368 49 33.256 46.7724 31.7888 46.1654C30.3735 45.5798 27.9581 46.3429 26.8076 45.1924Z" stroke="#0A65CC" stroke-width="2" stroke-linecap="round" stroke-linejoin="round"/>
<path d="M41.5 33L34.1666 40L30.5 36.5" stroke="#0A65CC" stroke-width="2" stroke-linecap="round" stroke-linejoin="round"/>
</g>
<defs>
<clipPath id="clip0_1647_32022">
<rect width="32" height="32" fill="white" transform="translate(20 20)"/>
</clipPath>
</defs>
</svg>
