<svg width="72" height="72" viewBox="0 0 72 72" fill="none" xmlns="http://www.w3.org/2000/svg">
<rect width="72" height="72" rx="36" fill="#0A65CC"/>
<g clip-path="url(#clip0_1647_31998)">
<path opacity="0.2" d="M30 35.9981C30 34.0202 30.5865 32.0868 31.6853 30.4423C32.7841 28.7979 34.3459 27.5161 36.1732 26.7593C38.0005 26.0024 40.0111 25.8043 41.9509 26.1902C43.8907 26.5761 45.6726 27.5285 47.0711 28.927C48.4696 30.3255 49.422 32.1073 49.8079 34.0471C50.1937 35.987 49.9957 37.9976 49.2388 39.8249C48.482 41.6521 47.2002 43.2139 45.5557 44.3127C43.9112 45.4116 41.9778 45.9981 40 45.9981H29C28.0073 45.9971 27.0262 45.785 26.1217 45.3758C25.2173 44.9667 24.4102 44.3698 23.754 43.6249C23.0978 42.88 22.6076 42.004 22.3159 41.0551C22.0242 40.1063 21.9376 39.1062 22.062 38.1213C22.1863 37.1364 22.5187 36.1892 23.0371 35.3426C23.5555 34.496 24.248 33.7694 25.0687 33.2109C25.8894 32.6524 26.8195 32.2749 27.7973 32.1033C28.7751 31.9318 29.7781 31.9702 30.7399 32.216" fill="#F1F2F4"/>
<path d="M31.9993 45.998H28.9993C28.0066 45.9971 27.0255 45.785 26.121 45.3758C25.2165 44.9667 24.4094 44.3698 23.7533 43.6249C23.0971 42.88 22.6069 42.004 22.3152 41.0551C22.0235 40.1063 21.9369 39.1062 22.0612 38.1213C22.1856 37.1364 22.518 36.1892 23.0364 35.3426C23.5547 34.496 24.2473 33.7694 25.068 33.2109C25.8887 32.6524 26.8188 32.2749 27.7966 32.1033C28.7743 31.9318 29.7774 31.9702 30.7392 32.216" stroke="#F1F2F4" stroke-width="2" stroke-linecap="round" stroke-linejoin="round"/>
<path d="M29.9993 35.998C29.9994 34.4136 30.3761 32.8518 31.0982 31.4415C31.8203 30.0312 32.8672 28.8126 34.1527 27.8862C35.4381 26.9599 36.9253 26.3522 38.4916 26.1133C40.0579 25.8744 41.6586 26.0112 43.1618 26.5123C44.6649 27.0134 46.0275 27.8644 47.1372 28.9954C48.2468 30.1264 49.0719 31.5048 49.5444 33.0172C50.0168 34.5296 50.1231 36.1326 49.8546 37.6941C49.586 39.2557 48.9502 40.731 47.9996 41.9986" stroke="#F1F2F4" stroke-width="2" stroke-linecap="round" stroke-linejoin="round"/>
<path d="M34.7566 40.2408L38.9992 35.998L43.2418 40.2408" stroke="#F1F2F4" stroke-width="2" stroke-linecap="round" stroke-linejoin="round"/>
<path d="M38.9993 45.998V35.998" stroke="#F1F2F4" stroke-width="2" stroke-linecap="round" stroke-linejoin="round"/>
</g>
<defs>
<clipPath id="clip0_1647_31998">
<rect width="32" height="32" fill="white" transform="translate(20 20)"/>
</clipPath>
</defs>
</svg>
