<svg width="72" height="72" viewBox="0 0 72 72" fill="none" xmlns="http://www.w3.org/2000/svg">
<rect width="72" height="72" rx="4" fill="#E7F0FA"/>
<g clip-path="url(#clip0_4112_12856)">
<path opacity="0.2" d="M36 39.75C30.7341 39.7583 25.5596 38.3739 21.0012 35.7373V48.5C21.0012 48.6642 21.0336 48.8267 21.0964 48.9784C21.1592 49.1301 21.2513 49.2679 21.3673 49.3839C21.4834 49.5 21.6212 49.5921 21.7729 49.6549C21.9245 49.7177 22.0871 49.75 22.2512 49.75H49.7512C49.9154 49.75 50.0779 49.7177 50.2296 49.6549C50.3812 49.5921 50.519 49.5 50.6351 49.3839C50.7512 49.2679 50.8433 49.1301 50.9061 48.9784C50.9689 48.8267 51.0012 48.6642 51.0012 48.5V35.7358C46.4423 38.3734 41.2669 39.7583 36 39.75Z" fill="#0A65CC"/>
<path d="M49.7512 27.25H22.2512C21.5609 27.25 21.0012 27.8096 21.0012 28.5V48.5C21.0012 49.1904 21.5609 49.75 22.2512 49.75H49.7512C50.4416 49.75 51.0012 49.1904 51.0012 48.5V28.5C51.0012 27.8096 50.4416 27.25 49.7512 27.25Z" stroke="#0A65CC" stroke-width="2" stroke-linecap="round" stroke-linejoin="round"/>
<path d="M42.25 27.25V24.75C42.25 24.087 41.9866 23.4511 41.5178 22.9822C41.0489 22.5134 40.413 22.25 39.75 22.25H32.25C31.587 22.25 30.9511 22.5134 30.4822 22.9822C30.0134 23.4511 29.75 24.087 29.75 24.75V27.25" stroke="#0A65CC" stroke-width="2" stroke-linecap="round" stroke-linejoin="round"/>
<path d="M51.0012 35.7358C46.4423 38.3734 41.2669 39.7583 36 39.75C30.7339 39.7583 25.5594 38.3739 21.001 35.7372" stroke="#0A65CC" stroke-width="2" stroke-linecap="round" stroke-linejoin="round"/>
<path d="M34.125 34.75H37.875" stroke="#0A65CC" stroke-width="2" stroke-linecap="round" stroke-linejoin="round"/>
</g>
<defs>
<clipPath id="clip0_4112_12856">
<rect width="40" height="40" fill="white" transform="translate(16 16)"/>
</clipPath>
</defs>
</svg>
